Coordinates
version=1
nRows=24
nColumns=24
inDegrees=yes

Units are S.I. units (second, meters, Newtons, ...)
Angles are in degrees.

endheader
time	pelvis_tilt	pelvis_list	pelvis_rotation	pelvis_tx	pelvis_ty	pelvis_tz	hip_flexion_r	hip_adduction_r	hip_rotation_r	knee_angle_r	ankle_angle_r	subtalar_angle_r	mtp_angle_r	hip_flexion_l	hip_adduction_l	hip_rotation_l	knee_angle_l	ankle_angle_l	subtalar_angle_l	mtp_angle_l	lumbar_extension	lumbar_bending	lumbar_rotation
      0.49500000	     -0.43485113	      4.69152870	      2.13275672	     -0.71149783	      0.97982542	      0.28607457	     28.41061094	     -3.39457842	     -2.01662125	    -15.29129452	      7.41816920	     -4.87697070	      0.68307803	    -14.49005641	      8.41701244	      4.46307648	     -6.63587619	     11.40629390	     -6.68704120	      0.06779095	     -2.26265268	     -2.22838791	     -1.14788106
      0.49916667	     -0.50396932	      4.70437590	      2.19059067	     -0.70555242	      0.97919944	      0.28636383	     28.36117780	     -3.38144060	     -2.06742136	    -15.28363757	      7.21682520	     -5.06723958	      4.95283664	    -14.39572647	      8.38607193	      4.34309861	     -7.39083543	     11.55042424	     -6.34098871	     -0.89637158	     -2.13713175	     -2.24450512	     -1.13372440
      0.50333333	     -0.53705671	      4.70384312	      2.25685652	     -0.69956077	      0.97866755	      0.28661350	     28.26885616	     -3.36524606	     -2.16873466	    -15.34744643	      7.03940719	     -4.94539860	      4.97189605	    -14.34569092	      8.34398055	      4.32065724	     -8.13726525	     11.62606184	     -6.16043449	     -0.86866689	     -2.06297889	     -2.23114075	     -1.24979472
      0.50750000	     -0.60771795	      4.70688446	      2.31495004	     -0.69354947	      0.97810894	      0.28690668	     28.21744913	     -3.34196631	     -2.22326671	    -15.47437419	      6.85910318	     -4.93374109	      5.00615719	    -14.20380015	      8.30386690	      4.20960724	     -8.98114042	     11.70575071	     -5.88122214	     -0.81082633	     -1.92615654	     -2.23399134	     -1.32396829
      0.51166667	     -0.65479203	      4.70341961	      2.36098273	     -0.68748845	      0.97761493	      0.28723030	     28.12737514	     -3.30255141	     -2.24898751	    -15.63249032	      6.65553573	     -4.96837704	      5.06041534	    -14.05930010	      8.25475302	      4.05422737	     -9.87311328	     11.75152934	     -5.56825912	     -0.71090053	     -1.80618257	     -2.23725843	     -1.37892979
      0.51583333	     -0.72248025	      4.67769878	      2.38929842	     -0.68141199	      0.97710687	      0.28757791	     28.07143652	     -3.23137018	     -2.25255012	    -15.86411645	      6.42799938	     -5.09157404	      5.15146646	    -13.85582426	      8.18556930	      3.85622714	    -10.83655458	     11.78733017	     -5.23574752	     -0.53017325	     -1.66924465	     -2.19675835	     -1.42580686
      0.52000000	     -0.74827406	      4.64784211	      2.44646978	     -0.67530294	      0.97673759	      0.28787312	     27.94609093	     -3.17425135	     -2.30670529	    -16.09620890	      6.07700293	     -5.14972105	      5.19193378	    -13.70481419	      8.11475642	      3.82630522	    -11.78173995	     11.71563708	     -5.11285176	     -0.43164651	     -1.58738981	     -2.14747085	     -1.42360464
      0.52416667	     -0.82302203	      4.60959507	      2.46759501	     -0.66918125	      0.97629265	      0.28827988	     27.87569134	     -3.07640134	     -2.24644544	    -16.36635098	      5.82123763	     -5.35011835	      5.31183083	    -13.41222880	      8.02249641	      3.53848786	    -12.89194791	     11.71427378	     -4.66524912	     -0.14085126	     -1.42357080	     -2.10729551	     -1.47231664
      0.52833333	     -0.88069932	      4.57072839	      2.51368603	     -0.66303332	      0.97593541	      0.28859849	     27.78309263	     -3.00512164	     -2.27524266	    -16.66099382	      5.39555961	     -5.43712805	      5.36322480	    -13.15745808	      7.94536983	      3.47872322	    -13.95929720	     11.54048531	     -4.55116980	      0.01231988	     -1.29517183	     -2.04373436	     -1.44521952
      0.53250000	     -0.87235832	      4.46483592	      2.51849504	     -0.65684822	      0.97570471	      0.28909023	     27.56657715	     -2.81366748	     -2.14013306	    -16.87310324	      4.97583860	     -5.92038983	      5.80413503	    -12.88986079	      7.76320563	      3.12380713	    -15.17175213	     11.45726951	     -4.06794877	      1.35086642	     -1.22870256	     -1.92011450	     -1.42224635
      0.53666667	     -1.01840102	      4.46214884	      2.56031883	     -0.65073095	      0.97526771	      0.28942036	     27.60448782	     -2.78384779	     -2.14856557	    -17.28625487	      4.68101719	     -5.91189233	      5.86219697	    -12.44358590	      7.72905086	      3.03665205	    -16.40819791	     11.18111464	     -3.96837180	      1.56391795	     -0.97846662	     -1.92419897	     -1.40632644
      0.54083333	     -1.07035616	      4.37462945	      2.55773808	     -0.64456233	      0.97499537	      0.28989179	     27.49806148	     -2.62146452	     -2.03998747	    -17.62927973	      4.31380259	     -6.36730950	      6.90018530	    -12.05541176	      7.58203132	      2.78107816	    -17.69847677	     10.82510646	     -3.77875968	      5.97955545	     -0.84392352	     -1.80887451	     -1.33199888
      0.54500000	     -1.12741112	      4.31000851	      2.57790695	     -0.63840091	      0.97474880	      0.29029230	     27.41340444	     -2.51742281	     -2.05068454	    -18.01306638	      3.92370704	     -6.35682526	      6.90160277	    -11.62572600	      7.45992606	      2.58339940	    -19.05610212	     10.48098305	     -3.52854255	      6.04773370	     -0.70882985	     -1.73398832	     -1.31485488
      0.54916667	     -1.19398080	      4.22007435	      2.58094670	     -0.63225188	      0.97451488	      0.29076106	     27.33318644	     -2.36782879	     -1.99276290	    -18.39727819	      3.58553671	     -6.57958460	      6.90222389	    -11.12653176	      7.30097892	      2.31113885	    -20.51003967	     10.10892810	     -3.23762915	      6.19041625	     -0.54687003	     -1.62213594	     -1.25852296
      0.55333333	     -1.21375195	      4.07891557	      2.56984257	     -0.62608993	      0.97439010	      0.29130225	     27.18854454	     -2.14567201	     -1.88149267	    -18.77102514	      3.31694980	     -7.02771739	      6.89750480	    -10.63745541	      7.06796696	      1.98146751	    -22.01281310	      9.65085379	     -2.86713427	      6.63519725	     -0.45241320	     -1.44780183	     -1.17781967
      0.55750000	     -1.27896037	      3.98373026	      2.56122955	     -0.61996998	      0.97421556	      0.29177913	     27.11681401	     -1.99417843	     -1.83248293	    -19.17891592	      2.96941671	     -7.11008462	      6.88959873	    -10.06908629	      6.90552425	      1.75322608	    -23.55555860	      9.08419900	     -2.73237908	      6.85432884	     -0.29807411	     -1.33687355	     -1.09263599
      0.56166667	     -1.31463529	      3.82311136	      2.54498963	     -0.61386350	      0.97411525	      0.29233571	     27.00295580	     -1.75196170	     -1.71694597	    -19.58702453	      2.75114124	     -7.57698411	      6.66469716	     -9.47831290	      6.64672303	      1.44710620	    -25.16591555	      8.40020302	     -2.57672294	     11.63951612	     -0.19129415	     -1.13611018	     -0.97533802
      0.56583333	     -1.33136793	      3.68766179	      2.51112588	     -0.60776972	      0.97402396	      0.29289037	     26.89907383	     -1.55119543	     -1.67953232	    -20.04748642	      2.54400098	     -7.62415914	      6.65700439	     -8.87216666	      6.40810655	      1.11926589	    -26.82898143	      7.70341664	     -2.28886067	     11.71560789	     -0.10313864	     -0.97639718	     -0.89144853
      0.57000000	     -1.35714122	      3.51908539	      2.48363992	     -0.60172876	      0.97396274	      0.29345697	     26.79151682	     -1.30795896	     -1.59901617	    -20.48388506	      2.39810391	     -7.85232507	      6.63669600	     -8.20683465	      6.12847326	      0.81304844	    -28.55887347	      6.94545480	     -2.05839847	     11.86432283	     -0.00804754	     -0.77737201	     -0.78002660
      0.57416667	     -1.33546108	      3.31432137	      2.46825639	     -0.59569231	      0.97400013	      0.29405259	     26.61213909	     -1.02434450	     -1.51608389	    -20.89111596	      2.31556442	     -8.19117030	      6.58457529	     -7.55801438	      5.78849353	      0.51108354	    -30.32395818	      6.09229754	     -1.78920153	     12.20274592	      0.02873337	     -0.54204066	     -0.64992865
      0.57833333	     -1.34948762	      3.12072381	      2.42131900	     -0.58971497	      0.97396983	      0.29464364	     26.50550043	     -0.75241515	     -1.44284854	    -21.35314513	      2.26471116	     -8.30588751	      6.54189122	     -6.83260310	      5.46966793	      0.20242958	    -32.13233998	      5.18138732	     -1.65317519	     12.47254944	      0.10417968	     -0.30262194	     -0.53823935
      0.58250000	     -1.34111226	      2.89280346	      2.38838838	     -0.58376834	      0.97399855	      0.29525513	     26.35735265	     -0.44346319	     -1.37040680	    -21.78558736	      2.28213863	     -8.49829806	      6.48663622	     -6.09565872	      5.09491028	     -0.09586638	    -33.97749612	      4.19941667	     -1.49021974	     12.78025123	      0.14823454	     -0.04008205	     -0.41942263
      0.58666667	     -1.30700634	      2.64218644	      2.35366322	     -0.57785272	      0.97408707	      0.29587462	     26.17077069	     -0.10834435	     -1.29868628	    -22.19762058	      2.34545541	     -8.69614393	      6.41682269	     -5.35650383	      4.68727587	     -0.38094037	    -35.84175618	      3.13736427	     -1.36307618	     13.12688171	      0.15973990	      0.25240214	     -0.29373731
      0.59083333	     -1.22719457	      2.36415189	      2.33086825	     -0.57195517	      0.97427314	      0.29649386	     25.90585640	      0.25401488	     -1.24287872	    -22.54997763	      2.39196166	     -8.87681207	      5.31110011	     -4.64717656	      4.23267854	     -0.64829555	    -37.69707172	      1.93012699	     -1.30026715	     17.69540929	      0.11478200	      0.56885305	     -0.19030821
